<svg xmlns="http://www.w3.org/2000/svg" xmlns:xlink="http://www.w3.org/1999/xlink" width="293" zoomAndPan="magnify" viewBox="0 0 219.75 215.999996" height="288" preserveAspectRatio="xMidYMid meet" version="1.0"><defs><clipPath id="9aa26a0749"><path d="M 76.507812 3.480469 L 157.375 3.480469 L 157.375 84.34375 L 76.507812 84.34375 Z M 76.507812 3.480469 " clip-rule="nonzero"/></clipPath><clipPath id="1b1a901dc9"><path d="M 116.941406 3.480469 C 94.609375 3.480469 76.507812 21.582031 76.507812 43.910156 C 76.507812 66.242188 94.609375 84.34375 116.941406 84.34375 C 139.273438 84.34375 157.375 66.242188 157.375 43.910156 C 157.375 21.582031 139.273438 3.480469 116.941406 3.480469 Z M 116.941406 3.480469 " clip-rule="nonzero"/></clipPath><clipPath id="8bcb67d2a0"><path d="M 0.507812 0.480469 L 81.375 0.480469 L 81.375 81.34375 L 0.507812 81.34375 Z M 0.507812 0.480469 " clip-rule="nonzero"/></clipPath><clipPath id="332d263f0a"><path d="M 40.941406 0.480469 C 18.609375 0.480469 0.507812 18.582031 0.507812 40.910156 C 0.507812 63.242188 18.609375 81.34375 40.941406 81.34375 C 63.273438 81.34375 81.375 63.242188 81.375 40.910156 C 81.375 18.582031 63.273438 0.480469 40.941406 0.480469 Z M 40.941406 0.480469 " clip-rule="nonzero"/></clipPath><clipPath id="9e5ca74f38"><rect x="0" width="82" y="0" height="82"/></clipPath><clipPath id="8120dfe3ec"><path d="M 122.273438 18.230469 L 181.355469 18.230469 L 181.355469 77.3125 L 122.273438 77.3125 Z M 122.273438 18.230469 " clip-rule="nonzero"/></clipPath><clipPath id="c9933a38bf"><path d="M 151.8125 18.230469 C 135.5 18.230469 122.273438 31.457031 122.273438 47.773438 C 122.273438 64.085938 135.5 77.3125 151.8125 77.3125 C 168.128906 77.3125 181.355469 64.085938 181.355469 47.773438 C 181.355469 31.457031 168.128906 18.230469 151.8125 18.230469 Z M 151.8125 18.230469 " clip-rule="nonzero"/></clipPath><clipPath id="e9c4d05a41"><path d="M 0.273438 0.230469 L 59.355469 0.230469 L 59.355469 59.3125 L 0.273438 59.3125 Z M 0.273438 0.230469 " clip-rule="nonzero"/></clipPath><clipPath id="ceb2e5f801"><path d="M 29.8125 0.230469 C 13.5 0.230469 0.273438 13.457031 0.273438 29.773438 C 0.273438 46.085938 13.5 59.3125 29.8125 59.3125 C 46.128906 59.3125 59.355469 46.085938 59.355469 29.773438 C 59.355469 13.457031 46.128906 0.230469 29.8125 0.230469 Z M 29.8125 0.230469 " clip-rule="nonzero"/></clipPath><clipPath id="3c75fe8d2d"><rect x="0" width="60" y="0" height="60"/></clipPath><clipPath id="ed94038099"><path d="M 46.03125 7.339844 L 126.898438 7.339844 L 126.898438 88.207031 L 46.03125 88.207031 Z M 46.03125 7.339844 " clip-rule="nonzero"/></clipPath><clipPath id="94a3b952fa"><path d="M 86.464844 7.339844 C 64.132812 7.339844 46.03125 25.441406 46.03125 47.773438 C 46.03125 70.101562 64.132812 88.207031 86.464844 88.207031 C 108.796875 88.207031 126.898438 70.101562 126.898438 47.773438 C 126.898438 25.441406 108.796875 7.339844 86.464844 7.339844 Z M 86.464844 7.339844 " clip-rule="nonzero"/></clipPath><clipPath id="81737f2cf2"><path d="M 0.03125 0.339844 L 80.898438 0.339844 L 80.898438 81.207031 L 0.03125 81.207031 Z M 0.03125 0.339844 " clip-rule="nonzero"/></clipPath><clipPath id="2358bac58b"><path d="M 40.464844 0.339844 C 18.132812 0.339844 0.03125 18.441406 0.03125 40.773438 C 0.03125 63.101562 18.132812 81.207031 40.464844 81.207031 C 62.796875 81.207031 80.898438 63.101562 80.898438 40.773438 C 80.898438 18.441406 62.796875 0.339844 40.464844 0.339844 Z M 40.464844 0.339844 " clip-rule="nonzero"/></clipPath><clipPath id="57c5008ee2"><rect x="0" width="81" y="0" height="82"/></clipPath><clipPath id="f7f47e8247"><path d="M 19.5625 26.859375 L 100.425781 26.859375 L 100.425781 107.726562 L 19.5625 107.726562 Z M 19.5625 26.859375 " clip-rule="nonzero"/></clipPath><clipPath id="e0f82c5db1"><path d="M 59.996094 26.859375 C 37.664062 26.859375 19.5625 44.960938 19.5625 67.292969 C 19.5625 89.621094 37.664062 107.726562 59.996094 107.726562 C 82.324219 107.726562 100.425781 89.621094 100.425781 67.292969 C 100.425781 44.960938 82.324219 26.859375 59.996094 26.859375 Z M 59.996094 26.859375 " clip-rule="nonzero"/></clipPath><clipPath id="d9cab84f2f"><path d="M 0.5625 0.859375 L 81.425781 0.859375 L 81.425781 81.726562 L 0.5625 81.726562 Z M 0.5625 0.859375 " clip-rule="nonzero"/></clipPath><clipPath id="5cd71a1a9d"><path d="M 40.996094 0.859375 C 18.664062 0.859375 0.5625 18.960938 0.5625 41.292969 C 0.5625 63.621094 18.664062 81.726562 40.996094 81.726562 C 63.324219 81.726562 81.425781 63.621094 81.425781 41.292969 C 81.425781 18.960938 63.324219 0.859375 40.996094 0.859375 Z M 40.996094 0.859375 " clip-rule="nonzero"/></clipPath><clipPath id="509b0457d9"><rect x="0" width="82" y="0" height="82"/></clipPath><clipPath id="7297c57e94"><path d="M 5.597656 56.824219 L 86.464844 56.824219 L 86.464844 137.691406 L 5.597656 137.691406 Z M 5.597656 56.824219 " clip-rule="nonzero"/></clipPath><clipPath id="ead5c5c2ce"><path d="M 46.03125 56.824219 C 23.699219 56.824219 5.597656 74.929688 5.597656 97.257812 C 5.597656 119.589844 23.699219 137.691406 46.03125 137.691406 C 68.363281 137.691406 86.464844 119.589844 86.464844 97.257812 C 86.464844 74.929688 68.363281 56.824219 46.03125 56.824219 Z M 46.03125 56.824219 " clip-rule="nonzero"/></clipPath><clipPath id="d6371a47bf"><path d="M 0.597656 0.824219 L 81.464844 0.824219 L 81.464844 81.691406 L 0.597656 81.691406 Z M 0.597656 0.824219 " clip-rule="nonzero"/></clipPath><clipPath id="10126bcfe2"><path d="M 41.03125 0.824219 C 18.699219 0.824219 0.597656 18.929688 0.597656 41.257812 C 0.597656 63.589844 18.699219 81.691406 41.03125 81.691406 C 63.363281 81.691406 81.464844 63.589844 81.464844 41.257812 C 81.464844 18.929688 63.363281 0.824219 41.03125 0.824219 Z M 41.03125 0.824219 " clip-rule="nonzero"/></clipPath><clipPath id="59d8259e8a"><rect x="0" width="82" y="0" height="82"/></clipPath><clipPath id="667adec808"><path d="M 5.839844 102.597656 L 59.996094 102.597656 L 59.996094 156.753906 L 5.839844 156.753906 Z M 5.839844 102.597656 " clip-rule="nonzero"/></clipPath><clipPath id="d14439e1db"><path d="M 32.917969 102.597656 C 17.960938 102.597656 5.839844 114.722656 5.839844 129.675781 C 5.839844 144.628906 17.960938 156.753906 32.917969 156.753906 C 47.871094 156.753906 59.996094 144.628906 59.996094 129.675781 C 59.996094 114.722656 47.871094 102.597656 32.917969 102.597656 Z M 32.917969 102.597656 " clip-rule="nonzero"/></clipPath><clipPath id="3b2ea38d29"><path d="M 0.839844 0.597656 L 54.996094 0.597656 L 54.996094 54.753906 L 0.839844 54.753906 Z M 0.839844 0.597656 " clip-rule="nonzero"/></clipPath><clipPath id="097187a3bf"><path d="M 27.917969 0.597656 C 12.960938 0.597656 0.839844 12.722656 0.839844 27.675781 C 0.839844 42.628906 12.960938 54.753906 27.917969 54.753906 C 42.871094 54.753906 54.996094 42.628906 54.996094 27.675781 C 54.996094 12.722656 42.871094 0.597656 27.917969 0.597656 Z M 27.917969 0.597656 " clip-rule="nonzero"/></clipPath><clipPath id="c53085ebae"><rect x="0" width="55" y="0" height="55"/></clipPath><clipPath id="626c598c8b"><path d="M 19.5625 129.707031 L 65.960938 129.707031 L 65.960938 176.109375 L 19.5625 176.109375 Z M 19.5625 129.707031 " clip-rule="nonzero"/></clipPath><clipPath id="67c096f73b"><path d="M 42.761719 129.707031 C 29.949219 129.707031 19.5625 140.09375 19.5625 152.90625 C 19.5625 165.71875 29.949219 176.109375 42.761719 176.109375 C 55.574219 176.109375 65.960938 165.71875 65.960938 152.90625 C 65.960938 140.09375 55.574219 129.707031 42.761719 129.707031 Z M 42.761719 129.707031 " clip-rule="nonzero"/></clipPath><clipPath id="1a6e7961bb"><path d="M 0.5625 0.707031 L 46.960938 0.707031 L 46.960938 47.109375 L 0.5625 47.109375 Z M 0.5625 0.707031 " clip-rule="nonzero"/></clipPath><clipPath id="4a27800c45"><path d="M 23.761719 0.707031 C 10.949219 0.707031 0.5625 11.09375 0.5625 23.90625 C 0.5625 36.71875 10.949219 47.109375 23.761719 47.109375 C 36.574219 47.109375 46.960938 36.71875 46.960938 23.90625 C 46.960938 11.09375 36.574219 0.707031 23.761719 0.707031 Z M 23.761719 0.707031 " clip-rule="nonzero"/></clipPath><clipPath id="85ec92c527"><rect x="0" width="47" y="0" height="48"/></clipPath><clipPath id="4ab392cda4"><path d="M 46.03125 48.226562 L 116.871094 48.226562 L 116.871094 120.464844 L 46.03125 120.464844 Z M 46.03125 48.226562 " clip-rule="nonzero"/></clipPath><clipPath id="a32300019b"><path d="M 0.03125 0.226562 L 70.871094 0.226562 L 70.871094 72.464844 L 0.03125 72.464844 Z M 0.03125 0.226562 " clip-rule="nonzero"/></clipPath><clipPath id="eff230f5ef"><rect x="0" width="71" y="0" height="73"/></clipPath><clipPath id="8847d9f923"><path d="M 27.707031 118.761719 L 68.765625 118.761719 L 68.765625 172.796875 L 27.707031 172.796875 Z M 27.707031 118.761719 " clip-rule="nonzero"/></clipPath><clipPath id="0809b06fd2"><path d="M 0.707031 0.761719 L 41.765625 0.761719 L 41.765625 54.796875 L 0.707031 54.796875 Z M 0.707031 0.761719 " clip-rule="nonzero"/></clipPath><clipPath id="384a593c6c"><rect x="0" width="42" y="0" height="55"/></clipPath><clipPath id="a040a38692"><path d="M 143.367188 26.859375 L 178 26.859375 L 178 77.3125 L 143.367188 77.3125 Z M 143.367188 26.859375 " clip-rule="nonzero"/></clipPath><clipPath id="9979f39c5f"><path d="M 0.367188 0.859375 L 35 0.859375 L 35 51.3125 L 0.367188 51.3125 Z M 0.367188 0.859375 " clip-rule="nonzero"/></clipPath><clipPath id="3717e56450"><rect x="0" width="35" y="0" height="52"/></clipPath><clipPath id="348bc6b191"><path d="M 72.722656 133.476562 L 151.984375 133.476562 L 151.984375 212.121094 L 72.722656 212.121094 Z M 72.722656 133.476562 " clip-rule="nonzero"/></clipPath><clipPath id="1c21e964db"><path d="M 112.269531 133.476562 C 90.425781 133.476562 72.722656 151.082031 72.722656 172.796875 C 72.722656 194.515625 90.425781 212.121094 112.269531 212.121094 C 134.109375 212.121094 151.8125 194.515625 151.8125 172.796875 C 151.8125 151.082031 134.109375 133.476562 112.269531 133.476562 Z M 112.269531 133.476562 " clip-rule="nonzero"/></clipPath><clipPath id="82f51b7923"><path d="M 0.722656 0.476562 L 79.984375 0.476562 L 79.984375 79.121094 L 0.722656 79.121094 Z M 0.722656 0.476562 " clip-rule="nonzero"/></clipPath><clipPath id="593e11b14c"><path d="M 40.269531 0.476562 C 18.425781 0.476562 0.722656 18.082031 0.722656 39.796875 C 0.722656 61.515625 18.425781 79.121094 40.269531 79.121094 C 62.109375 79.121094 79.8125 61.515625 79.8125 39.796875 C 79.8125 18.082031 62.109375 0.476562 40.269531 0.476562 Z M 40.269531 0.476562 " clip-rule="nonzero"/></clipPath><clipPath id="ef522492c3"><rect x="0" width="80" y="0" height="80"/></clipPath><clipPath id="c0c0f42d83"><path d="M 23.296875 118.761719 L 68.765625 118.761719 L 68.765625 176.109375 L 23.296875 176.109375 Z M 23.296875 118.761719 " clip-rule="nonzero"/></clipPath><clipPath id="d5f9bd364f"><path d="M 0.296875 0.761719 L 45.765625 0.761719 L 45.765625 58.109375 L 0.296875 58.109375 Z M 0.296875 0.761719 " clip-rule="nonzero"/></clipPath><clipPath id="eb40c57020"><rect x="0" width="46" y="0" height="59"/></clipPath><clipPath id="03f1b28311"><path d="M 103.820312 120.464844 L 183 120.464844 L 183 199.109375 L 103.820312 199.109375 Z M 103.820312 120.464844 " clip-rule="nonzero"/></clipPath><clipPath id="b72e2ad452"><path d="M 143.367188 120.464844 C 121.527344 120.464844 103.820312 138.070312 103.820312 159.789062 C 103.820312 181.503906 121.527344 199.109375 143.367188 199.109375 C 165.207031 199.109375 182.914062 181.503906 182.914062 159.789062 C 182.914062 138.070312 165.207031 120.464844 143.367188 120.464844 Z M 143.367188 120.464844 " clip-rule="nonzero"/></clipPath><clipPath id="610df6639e"><path d="M 0.820312 0.464844 L 80 0.464844 L 80 79.109375 L 0.820312 79.109375 Z M 0.820312 0.464844 " clip-rule="nonzero"/></clipPath><clipPath id="5a45dc451f"><path d="M 40.367188 0.464844 C 18.527344 0.464844 0.820312 18.070312 0.820312 39.789062 C 0.820312 61.503906 18.527344 79.109375 40.367188 79.109375 C 62.207031 79.109375 79.914062 61.503906 79.914062 39.789062 C 79.914062 18.070312 62.207031 0.464844 40.367188 0.464844 Z M 40.367188 0.464844 " clip-rule="nonzero"/></clipPath><clipPath id="55c673d464"><rect x="0" width="80" y="0" height="80"/></clipPath><clipPath id="b840e2e060"><path d="M 126.898438 94.152344 L 206 94.152344 L 206 172.796875 L 126.898438 172.796875 Z M 126.898438 94.152344 " clip-rule="nonzero"/></clipPath><clipPath id="bad1f5a6b1"><path d="M 166.445312 94.152344 C 144.605469 94.152344 126.898438 111.757812 126.898438 133.476562 C 126.898438 155.191406 144.605469 172.796875 166.445312 172.796875 C 188.285156 172.796875 205.992188 155.191406 205.992188 133.476562 C 205.992188 111.757812 188.285156 94.152344 166.445312 94.152344 Z M 166.445312 94.152344 " clip-rule="nonzero"/></clipPath><clipPath id="5cdbd56ea5"><path d="M 0.898438 0.152344 L 80 0.152344 L 80 78.796875 L 0.898438 78.796875 Z M 0.898438 0.152344 " clip-rule="nonzero"/></clipPath><clipPath id="fd66d7d638"><path d="M 40.445312 0.152344 C 18.605469 0.152344 0.898438 17.757812 0.898438 39.476562 C 0.898438 61.191406 18.605469 78.796875 40.445312 78.796875 C 62.285156 78.796875 79.992188 61.191406 79.992188 39.476562 C 79.992188 17.757812 62.285156 0.152344 40.445312 0.152344 Z M 40.445312 0.152344 " clip-rule="nonzero"/></clipPath><clipPath id="d067384533"><rect x="0" width="80" y="0" height="79"/></clipPath><clipPath id="f640495218"><path d="M 164.867188 78.425781 L 213.585938 78.425781 L 213.585938 126.769531 L 164.867188 126.769531 Z M 164.867188 78.425781 " clip-rule="nonzero"/></clipPath><clipPath id="ff04b4b309"><path d="M 189.175781 78.425781 C 175.75 78.425781 164.867188 89.25 164.867188 102.597656 C 164.867188 115.945312 175.75 126.769531 189.175781 126.769531 C 202.597656 126.769531 213.484375 115.945312 213.484375 102.597656 C 213.484375 89.25 202.597656 78.425781 189.175781 78.425781 Z M 189.175781 78.425781 " clip-rule="nonzero"/></clipPath><clipPath id="ec5cb28c21"><path d="M 0.867188 0.425781 L 49.585938 0.425781 L 49.585938 48.769531 L 0.867188 48.769531 Z M 0.867188 0.425781 " clip-rule="nonzero"/></clipPath><clipPath id="f73be9ac84"><path d="M 25.175781 0.425781 C 11.75 0.425781 0.867188 11.25 0.867188 24.597656 C 0.867188 37.945312 11.75 48.769531 25.175781 48.769531 C 38.597656 48.769531 49.484375 37.945312 49.484375 24.597656 C 49.484375 11.25 38.597656 0.425781 25.175781 0.425781 Z M 25.175781 0.425781 " clip-rule="nonzero"/></clipPath><clipPath id="e3872949f4"><rect x="0" width="50" y="0" height="49"/></clipPath><clipPath id="5bce37553c"><path d="M 65.960938 172.796875 L 103 172.796875 L 103 209.582031 L 65.960938 209.582031 Z M 65.960938 172.796875 " clip-rule="nonzero"/></clipPath><clipPath id="64648e3e2a"><path d="M 84.457031 172.796875 C 74.242188 172.796875 65.960938 181.03125 65.960938 191.191406 C 65.960938 201.347656 74.242188 209.582031 84.457031 209.582031 C 94.671875 209.582031 102.953125 201.347656 102.953125 191.191406 C 102.953125 181.03125 94.671875 172.796875 84.457031 172.796875 Z M 84.457031 172.796875 " clip-rule="nonzero"/></clipPath><clipPath id="f63f3848b4"><path d="M 0.960938 0.796875 L 38 0.796875 L 38 37.582031 L 0.960938 37.582031 Z M 0.960938 0.796875 " clip-rule="nonzero"/></clipPath><clipPath id="764e52aaac"><path d="M 19.457031 0.796875 C 9.242188 0.796875 0.960938 9.03125 0.960938 19.191406 C 0.960938 29.347656 9.242188 37.582031 19.457031 37.582031 C 29.671875 37.582031 37.953125 29.347656 37.953125 19.191406 C 37.953125 9.03125 29.671875 0.796875 19.457031 0.796875 Z M 19.457031 0.796875 " clip-rule="nonzero"/></clipPath><clipPath id="53b85ecb62"><rect x="0" width="38" y="0" height="38"/></clipPath><clipPath id="bb9f619c04"><path d="M 75.960938 126.769531 L 131.683594 126.769531 L 131.683594 182.492188 L 75.960938 182.492188 Z M 75.960938 126.769531 " clip-rule="nonzero"/></clipPath><clipPath id="91fa2af221"><path d="M 0.960938 0.769531 L 56.683594 0.769531 L 56.683594 56.492188 L 0.960938 56.492188 Z M 0.960938 0.769531 " clip-rule="nonzero"/></clipPath><clipPath id="85947c21af"><rect x="0" width="57" y="0" height="57"/></clipPath><clipPath id="e10dcf9233"><path d="M 122.273438 84.34375 L 177.996094 84.34375 L 177.996094 143.925781 L 122.273438 143.925781 Z M 122.273438 84.34375 " clip-rule="nonzero"/></clipPath><clipPath id="442b68ce97"><path d="M 0.273438 0.34375 L 55.996094 0.34375 L 55.996094 59.925781 L 0.273438 59.925781 Z M 0.273438 0.34375 " clip-rule="nonzero"/></clipPath><clipPath id="b9a03b25ae"><rect x="0" width="56" y="0" height="60"/></clipPath><clipPath id="e5d53e2c14"><path d="M 42 172 L 101 172 L 101 213 L 42 213 Z M 42 172 " clip-rule="nonzero"/></clipPath><clipPath id="ea23a2f8c1"><path d="M 38.320312 199.601562 L 47.675781 159.785156 L 101.023438 172.316406 L 91.671875 212.136719 Z M 38.320312 199.601562 " clip-rule="nonzero"/></clipPath><clipPath id="467febeea1"><path d="M 42.996094 179.695312 L 100.960938 172.300781 L 91.609375 212.121094 Z M 42.996094 179.695312 " clip-rule="nonzero"/></clipPath><clipPath id="054b246f2e"><path d="M 0.910156 0.246094 L 59 0.246094 L 59 40.28125 L 0.910156 40.28125 Z M 0.910156 0.246094 " clip-rule="nonzero"/></clipPath><clipPath id="70cb7b246b"><path d="M -3.679688 27.601562 L 5.675781 -12.214844 L 59.023438 0.316406 L 49.671875 40.136719 Z M -3.679688 27.601562 " clip-rule="nonzero"/></clipPath><clipPath id="4fef7a7d03"><path d="M 0.996094 7.695312 L 58.960938 0.300781 L 49.609375 40.121094 Z M 0.996094 7.695312 " clip-rule="nonzero"/></clipPath><clipPath id="57ddedd11d"><rect x="0" width="59" y="0" height="41"/></clipPath><clipPath id="4873ec07b1"><path d="M 169 52 L 211 52 L 211 108 L 169 108 Z M 169 52 " clip-rule="nonzero"/></clipPath><clipPath id="dfa4951abf"><path d="M 167.597656 53.035156 L 208.464844 51.324219 L 210.753906 106.078125 L 169.890625 107.789062 Z M 167.597656 53.035156 " clip-rule="nonzero"/></clipPath><clipPath id="9d941379fd"><path d="M 188.03125 52.179688 L 210.753906 106.015625 L 169.886719 107.726562 Z M 188.03125 52.179688 " clip-rule="nonzero"/></clipPath><clipPath id="46a5cb976b"><path d="M 0.726562 0.144531 L 41.960938 0.144531 L 41.960938 55.761719 L 0.726562 55.761719 Z M 0.726562 0.144531 " clip-rule="nonzero"/></clipPath><clipPath id="2c61065f2b"><path d="M -1.402344 1.035156 L 39.464844 -0.675781 L 41.753906 54.078125 L 0.890625 55.789062 Z M -1.402344 1.035156 " clip-rule="nonzero"/></clipPath><clipPath id="fe6dce0e84"><path d="M 19.03125 0.179688 L 41.753906 54.015625 L 0.886719 55.726562 Z M 19.03125 0.179688 " clip-rule="nonzero"/></clipPath><clipPath id="6f4c73fd82"><rect x="0" width="42" y="0" height="56"/></clipPath><clipPath id="31967f3de0"><path d="M 0 0.121094 L 215.003906 0.121094 L 215.003906 215.128906 L 0 215.128906 Z M 0 0.121094 " clip-rule="nonzero"/></clipPath><clipPath id="30b40411c5"><path d="M 107.597656 0.121094 C 48.171875 0.121094 0 48.296875 0 107.71875 C 0 167.144531 48.171875 215.316406 107.597656 215.316406 C 167.019531 215.316406 215.191406 167.144531 215.191406 107.71875 C 215.191406 48.296875 167.019531 0.121094 107.597656 0.121094 Z M 107.597656 0.121094 " clip-rule="nonzero"/></clipPath><clipPath id="38675d4b50"><path d="M 121.523438 113.214844 L 177.246094 113.214844 L 177.246094 172.796875 L 121.523438 172.796875 Z M 121.523438 113.214844 " clip-rule="nonzero"/></clipPath><clipPath id="badc2ea3b4"><path d="M 0.523438 0.214844 L 56.246094 0.214844 L 56.246094 59.796875 L 0.523438 59.796875 Z M 0.523438 0.214844 " clip-rule="nonzero"/></clipPath><clipPath id="b220de0510"><rect x="0" width="57" y="0" height="60"/></clipPath><clipPath id="12da5f0939"><path d="M 0 0.121094 L 219.5 0.121094 L 219.5 215.875 L 0 215.875 Z M 0 0.121094 " clip-rule="nonzero"/></clipPath><clipPath id="d991f66de9"><path d="M 145.96875 0.839844 L 218.984375 0.839844 L 218.984375 113.992188 L 145.96875 113.992188 Z M 145.96875 0.839844 " clip-rule="nonzero"/></clipPath><clipPath id="8ecbdd72e2"><path d="M 176.152344 1.382812 L 173.984375 1.921875 C 172.460938 2.304688 169.21875 3.464844 167.796875 4.136719 L 166.308594 4.84375 C 165.59375 5.183594 164.125 6.070312 163.492188 6.542969 L 161.011719 8.402344 C 159.824219 9.292969 157.464844 11.472656 156.480469 12.589844 L 155.152344 14.09375 C 154.507812 14.824219 153.3125 16.511719 152.839844 17.355469 L 150.734375 21.113281 C 150.132812 22.191406 148.914062 24.816406 148.480469 25.96875 L 148.007812 27.226562 C 147.789062 27.8125 147.410156 29.183594 147.292969 29.800781 L 146.511719 34.027344 C 146.253906 35.410156 145.96875 38.539062 145.96875 39.945312 L 145.96875 41.4375 C 145.96875 42.136719 146.101562 43.714844 146.222656 44.402344 L 146.878906 48.21875 C 147.199219 50.074219 148.296875 53.886719 149.015625 55.625 L 150.476562 59.171875 C 151.140625 60.785156 152.992188 64.527344 153.875 66.03125 L 180.585938 111.707031 C 180.867188 112.183594 181.542969 113.058594 181.933594 113.449219 L 182.328125 113.839844 C 182.421875 113.9375 182.554688 113.980469 182.683594 113.964844 C 182.816406 113.949219 182.933594 113.871094 183.003906 113.757812 L 197.199219 89.882812 C 199.765625 85.566406 206.96875 73.074219 209.417969 68.6875 L 212.746094 62.734375 C 214.023438 60.453125 216.199219 55.328125 216.957031 52.824219 L 217.742188 50.234375 C 218.125 48.972656 218.628906 46.253906 218.722656 44.941406 L 218.9375 41.894531 C 219.042969 40.4375 218.949219 37.265625 218.761719 35.816406 L 218.488281 33.71875 C 218.359375 32.726562 217.863281 30.566406 217.546875 29.617188 L 215.804688 24.398438 C 215.464844 23.371094 214.488281 21.109375 213.972656 20.15625 L 213.421875 19.136719 C 213.175781 18.679688 212.503906 17.597656 212.199219 17.171875 L 210.964844 15.445312 C 210.394531 14.644531 208.929688 12.914062 208.230469 12.21875 L 206.625 10.613281 C 205.863281 9.847656 204.03125 8.347656 203.132812 7.746094 L 200.707031 6.128906 C 199.636719 5.417969 197.089844 4.023438 195.910156 3.507812 L 194.65625 2.960938 C 194.066406 2.703125 192.691406 2.242188 192.066406 2.09375 L 188.988281 1.359375 C 187.535156 1.015625 186.046875 0.839844 184.554688 0.839844 L 180.554688 0.839844 C 179.453125 0.839844 177.226562 1.113281 176.152344 1.382812 Z M 176.152344 1.382812 " clip-rule="nonzero"/></clipPath><clipPath id="a87d42d7eb"><path d="M 0.96875 0.839844 L 73.984375 0.839844 L 73.984375 113.992188 L 0.96875 113.992188 Z M 0.96875 0.839844 " clip-rule="nonzero"/></clipPath><clipPath id="0db574ae49"><path d="M 31.152344 1.382812 L 28.984375 1.921875 C 27.460938 2.304688 24.21875 3.464844 22.796875 4.136719 L 21.308594 4.84375 C 20.59375 5.183594 19.125 6.070312 18.492188 6.542969 L 16.011719 8.402344 C 14.824219 9.292969 12.464844 11.472656 11.480469 12.589844 L 10.152344 14.09375 C 9.507812 14.824219 8.3125 16.511719 7.839844 17.355469 L 5.734375 21.113281 C 5.132812 22.191406 3.914062 24.816406 3.480469 25.96875 L 3.007812 27.226562 C 2.789062 27.8125 2.410156 29.183594 2.292969 29.800781 L 1.511719 34.027344 C 1.253906 35.410156 0.96875 38.539062 0.96875 39.945312 L 0.96875 41.4375 C 0.96875 42.136719 1.101562 43.714844 1.222656 44.402344 L 1.878906 48.21875 C 2.199219 50.074219 3.296875 53.886719 4.015625 55.625 L 5.476562 59.171875 C 6.140625 60.785156 7.992188 64.527344 8.875 66.03125 L 35.585938 111.707031 C 35.867188 112.183594 36.542969 113.058594 36.933594 113.449219 L 37.328125 113.839844 C 37.421875 113.9375 37.554688 113.980469 37.683594 113.964844 C 37.816406 113.949219 37.933594 113.871094 38.003906 113.757812 L 52.199219 89.882812 C 54.765625 85.566406 61.96875 73.074219 64.417969 68.6875 L 67.746094 62.734375 C 69.023438 60.453125 71.199219 55.328125 71.957031 52.824219 L 72.742188 50.234375 C 73.125 48.972656 73.628906 46.253906 73.722656 44.941406 L 73.9375 41.894531 C 74.042969 40.4375 73.949219 37.265625 73.761719 35.816406 L 73.488281 33.71875 C 73.359375 32.726562 72.863281 30.566406 72.546875 29.617188 L 70.804688 24.398438 C 70.464844 23.371094 69.488281 21.109375 68.972656 20.15625 L 68.421875 19.136719 C 68.175781 18.679688 67.503906 17.597656 67.199219 17.171875 L 65.964844 15.445312 C 65.394531 14.644531 63.929688 12.914062 63.230469 12.21875 L 61.625 10.613281 C 60.863281 9.847656 59.03125 8.347656 58.132812 7.746094 L 55.707031 6.128906 C 54.636719 5.417969 52.089844 4.023438 50.910156 3.507812 L 49.65625 2.960938 C 49.066406 2.703125 47.691406 2.242188 47.066406 2.09375 L 43.988281 1.359375 C 42.535156 1.015625 41.046875 0.839844 39.554688 0.839844 L 35.554688 0.839844 C 34.453125 0.839844 32.226562 1.113281 31.152344 1.382812 Z M 31.152344 1.382812 " clip-rule="nonzero"/></clipPath><clipPath id="6d034a5584"><rect x="0" width="74" y="0" height="114"/></clipPath><clipPath id="9a3b736f51"><path d="M 145.96875 0.839844 L 218.636719 0.839844 L 218.636719 113.960938 L 145.96875 113.960938 Z M 145.96875 0.839844 " clip-rule="nonzero"/></clipPath><clipPath id="41b0b919cc"><path d="M 176.148438 1.382812 L 173.984375 1.925781 C 172.457031 2.308594 169.21875 3.464844 167.796875 4.140625 L 166.304688 4.847656 C 165.589844 5.183594 164.121094 6.070312 163.492188 6.542969 L 161.011719 8.402344 C 159.824219 9.292969 157.460938 11.476562 156.480469 12.589844 L 155.148438 14.09375 C 154.507812 14.820312 153.3125 16.511719 152.835938 17.355469 L 150.734375 21.113281 C 150.132812 22.1875 148.914062 24.8125 148.480469 25.96875 L 148.007812 27.222656 C 147.789062 27.8125 147.410156 29.179688 147.292969 29.800781 L 146.511719 34.027344 C 146.253906 35.40625 145.96875 38.539062 145.96875 39.941406 L 145.96875 41.433594 C 145.96875 42.132812 146.101562 43.710938 146.222656 44.398438 L 146.878906 48.214844 C 147.199219 50.066406 148.296875 53.882812 149.015625 55.617188 L 150.472656 59.164062 C 151.136719 60.777344 152.992188 64.519531 153.871094 66.023438 L 180.582031 111.691406 C 180.863281 112.167969 181.539062 113.042969 181.929688 113.4375 L 182.320312 113.828125 C 182.414062 113.921875 182.546875 113.96875 182.679688 113.953125 C 182.8125 113.933594 182.929688 113.859375 182.996094 113.742188 L 197.191406 89.875 C 199.757812 85.554688 206.960938 73.066406 209.410156 68.679688 L 212.734375 62.730469 C 214.011719 60.445312 216.1875 55.324219 216.949219 52.820312 L 217.734375 50.230469 C 218.113281 48.96875 218.617188 46.25 218.710938 44.9375 L 218.929688 41.890625 C 219.03125 40.433594 218.941406 37.261719 218.75 35.816406 L 218.476562 33.71875 C 218.347656 32.722656 217.851562 30.566406 217.535156 29.613281 L 215.796875 24.398438 C 215.453125 23.371094 214.476562 21.109375 213.964844 20.15625 L 213.414062 19.136719 C 213.167969 18.675781 212.496094 17.597656 212.191406 17.171875 L 210.957031 15.445312 C 210.386719 14.644531 208.921875 12.914062 208.222656 12.21875 L 206.617188 10.613281 C 205.855469 9.847656 204.023438 8.347656 203.125 7.746094 L 200.699219 6.132812 C 199.632812 5.417969 197.082031 4.027344 195.90625 3.511719 L 194.648438 2.960938 C 194.058594 2.703125 192.683594 2.242188 192.058594 2.09375 L 188.984375 1.363281 C 187.53125 1.015625 186.042969 0.839844 184.550781 0.839844 L 180.550781 0.839844 C 179.449219 0.839844 177.21875 1.117188 176.148438 1.382812 Z M 176.148438 1.382812 " clip-rule="nonzero"/></clipPath><clipPath id="535eee45e2"><path d="M 169.046875 24.351562 L 196.78125 24.351562 L 196.78125 52.085938 L 169.046875 52.085938 Z M 169.046875 24.351562 " clip-rule="nonzero"/></clipPath><clipPath id="a50213e724"><path d="M 182.914062 24.351562 C 175.253906 24.351562 169.046875 30.5625 169.046875 38.21875 C 169.046875 45.878906 175.253906 52.085938 182.914062 52.085938 C 190.574219 52.085938 196.78125 45.878906 196.78125 38.21875 C 196.78125 30.5625 190.574219 24.351562 182.914062 24.351562 Z M 182.914062 24.351562 " clip-rule="nonzero"/></clipPath><clipPath id="3d708b5700"><path d="M 0.046875 0.351562 L 27.78125 0.351562 L 27.78125 28.085938 L 0.046875 28.085938 Z M 0.046875 0.351562 " clip-rule="nonzero"/></clipPath><clipPath id="f5c01d2e51"><path d="M 13.914062 0.351562 C 6.253906 0.351562 0.046875 6.5625 0.046875 14.21875 C 0.046875 21.878906 6.253906 28.085938 13.914062 28.085938 C 21.574219 28.085938 27.78125 21.878906 27.78125 14.21875 C 27.78125 6.5625 21.574219 0.351562 13.914062 0.351562 Z M 13.914062 0.351562 " clip-rule="nonzero"/></clipPath><clipPath id="58c1a5f041"><rect x="0" width="28" y="0" height="29"/></clipPath></defs><g clip-path="url(#9aa26a0749)"><g clip-path="url(#1b1a901dc9)"><g transform="matrix(1, 0, 0, 1, 76, 3)"><g clip-path="url(#9e5ca74f38)"><g clip-path="url(#8bcb67d2a0)"><g clip-path="url(#332d263f0a)"><path fill="#7ed957" d="M 0.507812 0.480469 L 81.375 0.480469 L 81.375 81.34375 L 0.507812 81.34375 Z M 0.507812 0.480469 " fill-opacity="1" fill-rule="nonzero"/></g></g></g></g></g></g><g clip-path="url(#8120dfe3ec)"><g clip-path="url(#c9933a38bf)"><g transform="matrix(1, 0, 0, 1, 122, 18)"><g clip-path="url(#3c75fe8d2d)"><g clip-path="url(#e9c4d05a41)"><g clip-path="url(#ceb2e5f801)"><path fill="#7ed957" d="M 0.273438 0.230469 L 59.355469 0.230469 L 59.355469 59.3125 L 0.273438 59.3125 Z M 0.273438 0.230469 " fill-opacity="1" fill-rule="nonzero"/></g></g></g></g></g></g><g clip-path="url(#ed94038099)"><g clip-path="url(#94a3b952fa)"><g transform="matrix(1, 0, 0, 1, 46, 7)"><g clip-path="url(#57c5008ee2)"><g clip-path="url(#81737f2cf2)"><g clip-path="url(#2358bac58b)"><path fill="#7ed957" d="M 0.03125 0.339844 L 80.898438 0.339844 L 80.898438 81.207031 L 0.03125 81.207031 Z M 0.03125 0.339844 " fill-opacity="1" fill-rule="nonzero"/></g></g></g></g></g></g><g clip-path="url(#f7f47e8247)"><g clip-path="url(#e0f82c5db1)"><g transform="matrix(1, 0, 0, 1, 19, 26)"><g clip-path="url(#509b0457d9)"><g clip-path="url(#d9cab84f2f)"><g clip-path="url(#5cd71a1a9d)"><path fill="#7ed957" d="M 0.5625 0.859375 L 81.425781 0.859375 L 81.425781 81.726562 L 0.5625 81.726562 Z M 0.5625 0.859375 " fill-opacity="1" fill-rule="nonzero"/></g></g></g></g></g></g><g clip-path="url(#7297c57e94)"><g clip-path="url(#ead5c5c2ce)"><g transform="matrix(1, 0, 0, 1, 5, 56)"><g clip-path="url(#59d8259e8a)"><g clip-path="url(#d6371a47bf)"><g clip-path="url(#10126bcfe2)"><path fill="#7ed957" d="M 0.597656 0.824219 L 81.464844 0.824219 L 81.464844 81.691406 L 0.597656 81.691406 Z M 0.597656 0.824219 " fill-opacity="1" fill-rule="nonzero"/></g></g></g></g></g></g><g clip-path="url(#667adec808)"><g clip-path="url(#d14439e1db)"><g transform="matrix(1, 0, 0, 1, 5, 102)"><g clip-path="url(#c53085ebae)"><g clip-path="url(#3b2ea38d29)"><g clip-path="url(#097187a3bf)"><path fill="#7ed957" d="M 0.839844 0.597656 L 54.996094 0.597656 L 54.996094 54.753906 L 0.839844 54.753906 Z M 0.839844 0.597656 " fill-opacity="1" fill-rule="nonzero"/></g></g></g></g></g></g><g clip-path="url(#626c598c8b)"><g clip-path="url(#67c096f73b)"><g transform="matrix(1, 0, 0, 1, 19, 129)"><g clip-path="url(#85ec92c527)"><g clip-path="url(#1a6e7961bb)"><g clip-path="url(#4a27800c45)"><path fill="#7ed957" d="M 0.5625 0.707031 L 46.960938 0.707031 L 46.960938 47.105469 L 0.5625 47.105469 Z M 0.5625 0.707031 " fill-opacity="1" fill-rule="nonzero"/></g></g></g></g></g></g><g clip-path="url(#4ab392cda4)"><g transform="matrix(1, 0, 0, 1, 46, 48)"><g clip-path="url(#eff230f5ef)"><g clip-path="url(#a32300019b)"><path fill="#7ed957" d="M 0.03125 0.226562 L 70.871094 0.226562 L 70.871094 72.449219 L 0.03125 72.449219 Z M 0.03125 0.226562 " fill-opacity="1" fill-rule="nonzero"/></g></g></g></g><g clip-path="url(#8847d9f923)"><g transform="matrix(1, 0, 0, 1, 27, 118)"><g clip-path="url(#384a593c6c)"><g clip-path="url(#0809b06fd2)"><path fill="#7ed957" d="M 0.707031 0.761719 L 41.765625 0.761719 L 41.765625 54.8125 L 0.707031 54.8125 Z M 0.707031 0.761719 " fill-opacity="1" fill-rule="nonzero"/></g></g></g></g><g clip-path="url(#a040a38692)"><g transform="matrix(1, 0, 0, 1, 143, 26)"><g clip-path="url(#3717e56450)"><g clip-path="url(#9979f39c5f)"><path fill="#7ed957" d="M 0.367188 0.859375 L 35 0.859375 L 35 51.320312 L 0.367188 51.320312 Z M 0.367188 0.859375 " fill-opacity="1" fill-rule="nonzero"/></g></g></g></g><g clip-path="url(#348bc6b191)"><g clip-path="url(#1c21e964db)"><g transform="matrix(1, 0, 0, 1, 72, 133)"><g clip-path="url(#ef522492c3)"><g clip-path="url(#82f51b7923)"><g clip-path="url(#593e11b14c)"><path fill="#7a2f00" d="M 0.722656 0.476562 L 79.675781 0.476562 L 79.675781 79.121094 L 0.722656 79.121094 Z M 0.722656 0.476562 " fill-opacity="1" fill-rule="nonzero"/></g></g></g></g></g></g><g clip-path="url(#c0c0f42d83)"><g transform="matrix(1, 0, 0, 1, 23, 118)"><g clip-path="url(#eb40c57020)"><g clip-path="url(#d5f9bd364f)"><path fill="#7ed957" d="M 0.296875 0.761719 L 45.765625 0.761719 L 45.765625 58.132812 L 0.296875 58.132812 Z M 0.296875 0.761719 " fill-opacity="1" fill-rule="nonzero"/></g></g></g></g><g clip-path="url(#03f1b28311)"><g clip-path="url(#b72e2ad452)"><g transform="matrix(1, 0, 0, 1, 103, 120)"><g clip-path="url(#55c673d464)"><g clip-path="url(#610df6639e)"><g clip-path="url(#5a45dc451f)"><path fill="#7a2f00" d="M 0.820312 0.464844 L 79.777344 0.464844 L 79.777344 79.109375 L 0.820312 79.109375 Z M 0.820312 0.464844 " fill-opacity="1" fill-rule="nonzero"/></g></g></g></g></g></g><g clip-path="url(#b840e2e060)"><g clip-path="url(#bad1f5a6b1)"><g transform="matrix(1, 0, 0, 1, 126, 94)"><g clip-path="url(#d067384533)"><g clip-path="url(#5cdbd56ea5)"><g clip-path="url(#fd66d7d638)"><path fill="#7a2f00" d="M 0.898438 0.152344 L 79.851562 0.152344 L 79.851562 78.796875 L 0.898438 78.796875 Z M 0.898438 0.152344 " fill-opacity="1" fill-rule="nonzero"/></g></g></g></g></g></g><g clip-path="url(#f640495218)"><g clip-path="url(#ff04b4b309)"><g transform="matrix(1, 0, 0, 1, 164, 78)"><g clip-path="url(#e3872949f4)"><g clip-path="url(#ec5cb28c21)"><g clip-path="url(#f73be9ac84)"><path fill="#7a2f00" d="M 0.867188 0.425781 L 49.398438 0.425781 L 49.398438 48.769531 L 0.867188 48.769531 Z M 0.867188 0.425781 " fill-opacity="1" fill-rule="nonzero"/></g></g></g></g></g></g><g clip-path="url(#5bce37553c)"><g clip-path="url(#64648e3e2a)"><g transform="matrix(1, 0, 0, 1, 65, 172)"><g clip-path="url(#53b85ecb62)"><g clip-path="url(#f63f3848b4)"><g clip-path="url(#764e52aaac)"><path fill="#7a2f00" d="M 0.960938 0.796875 L 37.886719 0.796875 L 37.886719 37.582031 L 0.960938 37.582031 Z M 0.960938 0.796875 " fill-opacity="1" fill-rule="nonzero"/></g></g></g></g></g></g><g clip-path="url(#bb9f619c04)"><g transform="matrix(1, 0, 0, 1, 75, 126)"><g clip-path="url(#85947c21af)"><g clip-path="url(#91fa2af221)"><path fill="#7a2f00" d="M 0.960938 0.769531 L 56.683594 0.769531 L 56.683594 56.492188 L 0.960938 56.492188 Z M 0.960938 0.769531 " fill-opacity="1" fill-rule="nonzero"/></g></g></g></g><g clip-path="url(#e10dcf9233)"><g transform="matrix(1, 0, 0, 1, 122, 84)"><g clip-path="url(#b9a03b25ae)"><g clip-path="url(#442b68ce97)"><path fill="#7a2f00" d="M 0.273438 0.34375 L 55.996094 0.34375 L 55.996094 59.984375 L 0.273438 59.984375 Z M 0.273438 0.34375 " fill-opacity="1" fill-rule="nonzero"/></g></g></g></g><g clip-path="url(#e5d53e2c14)"><g clip-path="url(#ea23a2f8c1)"><g clip-path="url(#467febeea1)"><g transform="matrix(1, 0, 0, 1, 42, 172)"><g clip-path="url(#57ddedd11d)"><g clip-path="url(#054b246f2e)"><g clip-path="url(#70cb7b246b)"><g clip-path="url(#4fef7a7d03)"><path fill="#7a2f00" d="M -3.679688 27.601562 L 5.675781 -12.214844 L 59.023438 0.316406 L 49.671875 40.136719 Z M -3.679688 27.601562 " fill-opacity="1" fill-rule="nonzero"/></g></g></g></g></g></g></g></g><g clip-path="url(#4873ec07b1)"><g clip-path="url(#dfa4951abf)"><g clip-path="url(#9d941379fd)"><g transform="matrix(1, 0, 0, 1, 169, 52)"><g clip-path="url(#6f4c73fd82)"><g clip-path="url(#46a5cb976b)"><g clip-path="url(#2c61065f2b)"><g clip-path="url(#fe6dce0e84)"><path fill="#7a2f00" d="M -1.402344 1.035156 L 39.464844 -0.675781 L 41.753906 54.078125 L 0.890625 55.789062 Z M -1.402344 1.035156 " fill-opacity="1" fill-rule="nonzero"/></g></g></g></g></g></g></g></g><g clip-path="url(#31967f3de0)"><g clip-path="url(#30b40411c5)"><path stroke-linecap="butt" transform="matrix(0.749148, 0, 0, 0.749148, -0.000000000000025067, 0.122725)" fill="none" stroke-linejoin="miter" d="M 143.62676 -0.00217757 C 64.30224 -0.00217757 0.00000000000003346 64.305277 0.00000000000003346 143.624582 C 0.00000000000003346 222.949102 64.30224 287.251342 143.62676 287.251342 C 222.946065 287.251342 287.248305 222.949102 287.248305 143.624582 C 287.248305 64.305277 222.946065 -0.00217757 143.62676 -0.00217757 Z M 143.62676 -0.00217757 " stroke="#ffffff" stroke-width="32" stroke-opacity="1" stroke-miterlimit="4"/></g></g><g clip-path="url(#38675d4b50)"><g transform="matrix(1, 0, 0, 1, 121, 113)"><g clip-path="url(#b220de0510)"><g clip-path="url(#badc2ea3b4)"><path fill="#7a2f00" d="M 0.523438 0.214844 L 56.246094 0.214844 L 56.246094 59.855469 L 0.523438 59.855469 Z M 0.523438 0.214844 " fill-opacity="1" fill-rule="nonzero"/></g></g></g></g><g clip-path="url(#12da5f0939)"><path stroke-linecap="butt" transform="matrix(0.749148, 0, 0, 0.749148, 30.300039, 36.345582)" fill="none" stroke-linejoin="miter" d="M 0.000990177 182.559185 L 47.002319 182.559185 C 50.313374 182.559185 53.003931 179.873842 53.003931 176.562788 L 53.003931 124.863411 C 53.003931 121.547143 55.689275 118.861799 59.000329 118.861799 L 109.75071 118.861799 C 113.061765 118.861799 115.747108 116.176456 115.747108 112.860187 L 115.747108 59.737318 C 115.747108 56.426264 118.437666 53.735706 121.74872 53.735706 L 192.375856 53.735706 C 195.68691 53.735706 198.372254 51.050363 198.372254 47.739309 L 198.372254 -0.00244523 " stroke="#ffffff" stroke-width="16" stroke-opacity="1" stroke-miterlimit="4"/></g><g clip-path="url(#d991f66de9)"><g clip-path="url(#8ecbdd72e2)"><g transform="matrix(1, 0, 0, 1, 145, -0.000000000000002442)"><g clip-path="url(#6d034a5584)"><g clip-path="url(#a87d42d7eb)"><g clip-path="url(#0db574ae49)"><path fill="#ff3131" d="M 0.96875 0.839844 L 73.984375 0.839844 L 73.984375 114.136719 L 0.96875 114.136719 Z M 0.96875 0.839844 " fill-opacity="1" fill-rule="nonzero"/></g></g></g></g></g></g><g clip-path="url(#9a3b736f51)"><g clip-path="url(#41b0b919cc)"><path stroke-linecap="butt" transform="matrix(0.749148, 0, 0, 0.749148, 145.967917, 0.839627)" fill="none" stroke-linejoin="miter" d="M 40.286476 0.725072 L 37.397777 1.449854 C 35.359002 1.960851 31.036381 3.504272 29.138391 4.406338 L 27.146544 5.350119 C 26.192335 5.798545 24.231773 6.982182 23.392278 7.613107 L 20.081223 10.095095 C 18.496089 11.283946 15.341462 14.198716 14.032683 15.68478 L 12.254621 17.69227 C 11.399482 18.662122 9.803919 20.919896 9.16778 22.046176 L 6.362508 27.062293 C 5.559512 28.496214 3.932664 32.000196 3.353881 33.543617 L 2.722956 35.217394 C 2.430957 36.004747 1.925174 37.829737 1.768746 38.658805 L 0.725894 44.300633 C 0.381753 46.141266 0.0011125 50.323102 0.0011125 52.195021 L 0.0011125 54.186867 C 0.0011125 55.12022 0.178397 57.22678 0.340039 58.14449 L 1.216035 63.238821 C 1.643604 65.71038 3.108811 70.80471 4.068234 73.119841 L 6.013153 77.854388 C 6.899577 80.007877 9.37635 85.003137 10.549558 87.010627 L 46.20466 147.970527 C 46.580087 148.606667 47.482154 149.774661 48.003579 150.301301 L 48.525005 150.822727 C 48.650148 150.947869 48.827432 151.01044 49.004717 150.989583 C 49.182002 150.963512 49.33843 150.864441 49.427072 150.708013 L 68.375689 118.848891 C 71.801457 113.081921 81.41655 96.411936 84.68589 90.556323 L 89.123225 82.615007 C 90.828287 79.564665 93.732629 72.728772 94.74941 69.386432 L 95.797476 65.929378 C 96.303259 64.245173 96.975898 60.616049 97.101041 58.864058 L 97.393039 54.796936 C 97.52861 52.852017 97.408682 48.618039 97.153183 46.688763 L 96.788185 43.888706 C 96.616115 42.55907 95.953904 39.680799 95.531549 38.40852 L 93.211204 31.447485 C 92.752349 30.076135 91.448784 27.057079 90.765716 25.7848 L 90.030506 24.423878 C 89.702007 23.808595 88.805155 22.36946 88.398443 21.801106 L 86.750737 19.496403 C 85.989455 18.42748 84.034108 16.117564 83.100756 15.189426 L 80.957695 13.046365 C 79.940915 12.02437 77.495427 10.022095 76.296148 9.219099 L 73.058093 7.06561 C 71.634601 6.111401 68.229689 4.255125 66.660198 3.566843 L 64.981206 2.831632 C 64.193853 2.487491 62.358434 1.872209 61.524153 1.674067 L 57.420531 0.699 C 55.480827 0.234931 53.494194 0.000289576 51.502347 0.000289576 L 46.162946 0.000289576 C 44.692525 0.000289576 41.715183 0.370502 40.286476 0.725072 Z M 40.286476 0.725072 " stroke="#ffffff" stroke-width="32" stroke-opacity="1" stroke-miterlimit="4"/></g></g><g clip-path="url(#535eee45e2)"><g clip-path="url(#a50213e724)"><g transform="matrix(1, 0, 0, 1, 169, 24)"><g clip-path="url(#58c1a5f041)"><g clip-path="url(#3d708b5700)"><g clip-path="url(#f5c01d2e51)"><path fill="#ffffff" d="M 0.046875 0.351562 L 27.78125 0.351562 L 27.78125 28.085938 L 0.046875 28.085938 Z M 0.046875 0.351562 " fill-opacity="1" fill-rule="nonzero"/></g></g></g></g></g></g></svg>